<svg version="1.1" xmlns="http://www.w3.org/2000/svg" viewBox="0 0 780.2784696434937 1025.8010740332425" width="1560.5569392869875" height="2051.602148066485">
  <!-- svg-source:excalidraw -->
  
  <defs>
    <style class="style-fonts">
      @font-face {
        font-family: "Virgil";
        src: url("https://excalidraw.com/Virgil.woff2");
      }
      @font-face {
        font-family: "Cascadia";
        src: url("https://excalidraw.com/Cascadia.woff2");
      }
      @font-face {
        font-family: "Assistant";
        src: url("https://excalidraw.com/Assistant-Regular.woff2");
      }
    </style>
    
  </defs>
  <g stroke-linecap="round" transform="translate(11.384547178073262 26.782082322466067) rotate(0 41.43997923981806 201.2974139489611)"><path d="M4.86 5.55 C4.86 5.55, 4.86 5.55, 4.86 5.55 M4.86 5.55 C4.86 5.55, 4.86 5.55, 4.86 5.55 M0.4 22.87 C6.32 14.7, 10.38 7.79, 19.43 0.99 M0.4 22.87 C7.41 13.57, 15.18 9.23, 19.43 0.99 M0.53 34.91 C7.71 20.11, 24.91 9.14, 30.06 0.95 M0.53 34.91 C10.04 22.33, 23.67 8.39, 30.06 0.95 M0.67 46.95 C12.83 33.94, 28.65 21.68, 40.69 0.92 M0.67 46.95 C12.84 32.4, 20.68 19.99, 40.69 0.92 M0.8 59 C12.65 48.18, 20.39 32.05, 51.32 0.88 M0.8 59 C11.46 46.58, 26.3 31.01, 51.32 0.88 M0.28 71.79 C13.33 52.81, 29.38 37.78, 61.29 1.6 M0.28 71.79 C14.53 56.87, 25.73 43.64, 61.29 1.6 M0.41 83.83 C23.69 53.08, 52.71 21.79, 71.92 1.57 M0.41 83.83 C25 56.74, 52.6 26, 71.92 1.57 M0.54 95.87 C24 66.21, 56.49 30.56, 78.61 6.06 M0.54 95.87 C28.8 62.98, 60 27.31, 78.61 6.06 M0.68 107.91 C18.66 85.24, 34.96 69.13, 82.03 14.33 M0.68 107.91 C31.08 74.04, 59.83 44.04, 82.03 14.33 M0.81 119.95 C16.14 96.55, 36.34 81.63, 82.82 25.62 M0.81 119.95 C31.04 82.49, 61.86 43.35, 82.82 25.62 M0.94 132 C23.5 112.68, 40.9 82.65, 82.95 37.66 M0.94 132 C29.67 100.29, 54.26 67.33, 82.95 37.66 M0.42 144.79 C29.89 115.32, 54.83 88.67, 83.08 49.7 M0.42 144.79 C30.36 111.65, 59.69 79.03, 83.08 49.7 M0.55 156.83 C24.43 123.71, 54.12 95.77, 83.22 61.74 M0.55 156.83 C25.08 133.29, 46.67 105.98, 83.22 61.74 M0.69 168.87 C31.09 128.95, 68.55 95.28, 83.35 73.78 M0.69 168.87 C25.65 139.89, 47.07 115.59, 83.35 73.78 M0.82 180.91 C31.56 146.86, 60.61 106.96, 82.83 86.57 M0.82 180.91 C19 160.23, 36.42 136.52, 82.83 86.57 M0.95 192.95 C25.01 162.85, 50.87 130.21, 82.96 98.62 M0.95 192.95 C23.34 164.8, 51.11 135.77, 82.96 98.62 M0.43 205.75 C20.25 180.81, 42.79 151.83, 83.09 110.66 M0.43 205.75 C25.84 174.44, 55.57 144.06, 83.09 110.66 M0.56 217.79 C27.69 189.26, 53.9 160.5, 83.23 122.7 M0.56 217.79 C24.39 190.74, 47.94 161.24, 83.23 122.7 M0.7 229.83 C22.74 201.96, 46.06 183.62, 83.36 134.74 M0.7 229.83 C27.86 200.62, 52.49 173.47, 83.36 134.74 M0.83 241.87 C34 207.66, 61.08 166, 82.84 147.53 M0.83 241.87 C21.27 217.7, 42.67 191.25, 82.84 147.53 M0.96 253.91 C24.33 228.9, 43.01 204.43, 82.97 159.57 M0.96 253.91 C24.82 229.35, 44.98 203.53, 82.97 159.57 M0.44 266.71 C33.89 229.68, 62.52 193.94, 83.1 171.62 M0.44 266.71 C24.24 239.47, 46.79 215.91, 83.1 171.62 M0.57 278.75 C17.15 259.42, 36.12 235.12, 83.24 183.66 M0.57 278.75 C24.09 247.49, 53.67 217.76, 83.24 183.66 M0.7 290.79 C30.11 255.59, 62.42 227.9, 83.37 195.7 M0.7 290.79 C31.79 254.4, 61.05 218.65, 83.37 195.7 M0.84 302.83 C30.51 266.02, 63 222.9, 83.5 207.74 M0.84 302.83 C23.15 274.06, 46.12 250.62, 83.5 207.74 M0.97 314.87 C28.62 284.03, 55.26 255.25, 82.98 220.53 M0.97 314.87 C26.06 285.74, 52.33 256.09, 82.98 220.53 M1.1 326.91 C19.95 301.27, 44.48 270.67, 83.11 232.57 M1.1 326.91 C30.27 293.39, 60.89 256.41, 83.11 232.57 M0.58 339.71 C26.68 304.22, 61.94 274.06, 83.24 244.62 M0.58 339.71 C26.33 306.31, 53.2 275.93, 83.24 244.62 M0.71 351.75 C36.24 313.49, 62.25 274.83, 83.38 256.66 M0.71 351.75 C31.85 313.76, 64.82 281.06, 83.38 256.66 M0.85 363.79 C30.75 331.37, 49.02 303.17, 83.51 268.7 M0.85 363.79 C18.12 340.4, 38.7 318.64, 83.51 268.7 M0.98 375.83 C30.25 347.7, 60.74 309.22, 82.99 281.49 M0.98 375.83 C25.54 352.35, 49.58 323.34, 82.99 281.49 M1.11 387.87 C21.67 370.95, 41.16 344.65, 83.12 293.53 M1.11 387.87 C25.09 356.18, 50.51 326.14, 83.12 293.53 M4.53 396.14 C31.55 362.35, 63.27 329.34, 83.25 305.57 M4.53 396.14 C34.45 361.97, 63.99 329.91, 83.25 305.57 M11.22 400.63 C43.32 367.24, 69.23 338.9, 83.39 317.62 M11.22 400.63 C28.69 382.39, 43.39 361.71, 83.39 317.62 M21.2 401.35 C42.51 374.41, 67.92 343.45, 83.52 329.66 M21.2 401.35 C45.87 376.24, 70.93 346.08, 83.52 329.66 M31.17 402.07 C47.35 385.34, 55.64 371.45, 83 342.45 M31.17 402.07 C45.08 386.45, 58.91 370.87, 83 342.45 M41.8 402.04 C59.73 381.82, 67.42 370.84, 83.13 354.49 M41.8 402.04 C54.92 386.03, 68.88 369.4, 83.13 354.49 M52.43 402 C63.52 389.58, 70.59 378.64, 83.26 366.53 M52.43 402 C61.67 388.82, 73.23 378, 83.26 366.53 M63.06 401.97 C63.9 400.68, 75.33 387.19, 83.4 378.57 M63.06 401.97 C69.66 392.69, 75.58 385.99, 83.4 378.57 M5.45 397.65 C5.45 397.65, 5.45 397.65, 5.45 397.65 M5.45 397.65 C5.45 397.65, 5.45 397.65, 5.45 397.65 M15.99 396.21 C15.07 391.97, 11.56 391.43, 2.4 384.4 M15.99 396.21 C12.08 393.67, 7.13 387.49, 2.4 384.4 M28.78 396.73 C21.24 390.15, 13.16 378.54, 2.37 373.77 M28.78 396.73 C23.4 389.97, 17.67 385.36, 2.37 373.77 M40.82 396.6 C26.26 386.68, 15.39 378.29, 2.33 363.14 M40.82 396.6 C29.45 385.93, 21.51 378.46, 2.33 363.14 M53.62 397.12 C40.06 382.44, 20.06 371.73, 2.3 352.51 M53.62 397.12 C40.76 384.77, 25.46 370.76, 2.3 352.51 M68.68 399.61 C48.75 379.43, 32.57 370.36, 2.26 341.88 M68.68 399.61 C49.36 381.03, 32.09 364.81, 2.26 341.88 M77.7 396.85 C50.87 379.31, 23.58 350.4, 2.23 331.25 M77.7 396.85 C61.65 383.41, 46.56 369.21, 2.23 331.25 M82.95 390.82 C60.87 369.45, 34.71 344.44, 2.19 320.62 M82.95 390.82 C60.75 368.5, 40.47 350.16, 2.19 320.62 M83.67 380.84 C57.58 357.18, 37.29 336.1, 2.16 309.99 M83.67 380.84 C65.82 366.29, 47.56 349.12, 2.16 309.99 M83.63 370.21 C56.07 346.23, 32.01 317.03, 2.12 299.36 M83.63 370.21 C61.8 350.83, 37.82 331.55, 2.12 299.36 M83.6 359.58 C48.25 335.99, 20.21 307.52, 2.09 288.73 M83.6 359.58 C53.68 335.06, 28.17 309.88, 2.09 288.73 M83.56 348.95 C67.69 333.58, 46.59 314.73, 2.06 278.1 M83.56 348.95 C59.42 325.8, 33.77 304.64, 2.06 278.1 M83.53 338.32 C61.07 318.3, 48.09 306.2, 2.02 267.47 M83.53 338.32 C51.83 312.47, 20.68 282.35, 2.02 267.47 M83.5 327.69 C61.66 310.28, 39.9 294.42, 1.99 256.84 M83.5 327.69 C56.45 301, 27.96 278.65, 1.99 256.84 M83.46 317.06 C53.98 291.18, 21.47 260.7, 1.95 246.21 M83.46 317.06 C51.54 290.38, 21.68 265.66, 1.95 246.21 M83.43 306.43 C59.93 283.36, 26.63 261.88, 1.92 235.58 M83.43 306.43 C61.74 288.91, 41.09 267.62, 1.92 235.58 M83.39 295.8 C54.02 272.14, 15.81 245.52, 1.88 224.95 M83.39 295.8 C54.75 268.1, 25.01 243.49, 1.88 224.95 M83.36 285.17 C50.61 257.26, 15.9 229.33, 1.85 214.32 M83.36 285.17 C54.58 261.82, 22.26 233.73, 1.85 214.32 M83.32 274.54 C56.17 248.76, 26.37 226.51, 2.57 204.34 M83.32 274.54 C53.87 249.57, 29.89 224.58, 2.57 204.34 M83.29 263.91 C65.01 246.36, 48.93 233.31, 2.53 193.71 M83.29 263.91 C61.94 244.8, 44.14 226.36, 2.53 193.71 M83.25 253.28 C60.49 230.15, 29.05 210.98, 2.5 183.08 M83.25 253.28 C54.08 227.68, 22.16 199.15, 2.5 183.08 M83.97 243.31 C59.58 221.89, 30.51 195.03, 2.47 172.45 M83.97 243.31 C57.82 219.39, 31.07 198.7, 2.47 172.45 M83.94 232.68 C52.55 202.06, 26.33 179, 2.43 161.82 M83.94 232.68 C55.74 211.71, 30.16 188.45, 2.43 161.82 M83.91 222.05 C52.49 193.11, 22.01 169.5, 2.4 151.19 M83.91 222.05 C56.19 200.29, 32.19 180.32, 2.4 151.19 M83.87 211.42 C54.69 185.06, 34.54 164.55, 2.36 140.56 M83.87 211.42 C63.31 196.25, 45.34 178.67, 2.36 140.56 M83.84 200.79 C50.32 176.56, 28.25 151.12, 2.33 129.93 M83.84 200.79 C58.99 181.78, 37.84 160.1, 2.33 129.93 M83.8 190.16 C53.2 162.5, 25.1 139.1, 2.29 119.3 M83.8 190.16 C57.25 166.58, 28.59 143.95, 2.29 119.3 M83.77 179.53 C56.64 158.37, 39.61 136.15, 2.26 108.67 M83.77 179.53 C60.52 159.03, 33.71 135.67, 2.26 108.67 M83.73 168.9 C67.14 155.07, 51.45 136.56, 2.22 98.04 M83.73 168.9 C61.6 147.76, 36.14 126.05, 2.22 98.04 M83.7 158.27 C59.51 144.33, 43.25 125.52, 2.19 87.41 M83.7 158.27 C68.09 144.06, 53.37 132.36, 2.19 87.41 M83.66 147.64 C61.65 129.25, 40.64 113.79, 2.15 76.78 M83.66 147.64 C50.37 119.45, 20 95.07, 2.15 76.78 M83.63 137.01 C58.26 115.1, 34.01 95.1, 2.12 66.15 M83.63 137.01 C63.84 117.92, 39.14 97.79, 2.12 66.15 M83.59 126.38 C53.99 102.06, 28.85 79.04, 2.09 55.52 M83.59 126.38 C63.35 104.76, 41.37 88.16, 2.09 55.52 M83.56 115.75 C58.2 91.68, 25.26 68.34, 2.05 44.89 M83.56 115.75 C60.68 95.9, 39.61 81, 2.05 44.89 M83.53 105.12 C56.39 75.58, 23.66 53.3, 2.02 34.26 M83.53 105.12 C67.44 91.15, 50.37 76.58, 2.02 34.26 M83.49 94.49 C59.88 77.93, 38.06 59.61, 1.98 23.63 M83.49 94.49 C65.54 82.01, 51.53 67.14, 1.98 23.63 M83.46 83.86 C50.6 59.39, 27.44 32.48, 4.97 15.63 M83.46 83.86 C59.17 61.81, 34.55 39.4, 4.97 15.63 M83.42 73.23 C59.68 55.54, 38.49 33.06, 6.44 6.31 M83.42 73.23 C57.67 49.31, 27.89 26.26, 6.44 6.31 M83.39 62.6 C60.64 41.11, 28.51 17.47, 12.44 0.93 M83.39 62.6 C64.69 47.59, 49.13 30.81, 12.44 0.93 M83.35 51.97 C65.87 35.46, 49.52 28.62, 22.22 -1.18 M83.35 51.97 C70.16 41.57, 53.63 28.11, 22.22 -1.18 M83.32 41.34 C65.81 30.7, 52.84 13.84, 34.26 -1.31 M83.32 41.34 C69.02 26.96, 54.84 15.64, 34.26 -1.31 M83.28 30.71 C79.04 25.6, 63.79 17.63, 47.06 -0.79 M83.28 30.71 C77.69 23.82, 69.05 15.91, 47.06 -0.79 M83.25 20.08 C77.88 9.68, 61.72 2.98, 59.85 -0.26 M83.25 20.08 C75.07 11.75, 66.64 6.52, 59.85 -0.26" stroke="#a5d8ff" stroke-width="1" fill="none"></path><path d="M20.72 0 C40.27 -3.54, 54.71 -2.72, 62.16 0 M20.72 0 C33.65 2.36, 49.81 0.62, 62.16 0 M62.16 0 C75.2 2.03, 86 10.03, 82.88 20.72 M62.16 0 C74.56 3.97, 79.31 8.03, 82.88 20.72 M82.88 20.72 C88.08 112.31, 84.3 201.58, 82.88 381.87 M82.88 20.72 C86.13 156.26, 85.35 290.79, 82.88 381.87 M82.88 381.87 C81.15 394.68, 76.99 399.01, 62.16 402.59 M82.88 381.87 C78.47 395.41, 72.35 401.4, 62.16 402.59 M62.16 402.59 C52.88 398.62, 34.78 402.92, 20.72 402.59 M62.16 402.59 C47 402.69, 34.65 401.69, 20.72 402.59 M20.72 402.59 C9.35 404.21, -0.49 395.97, 0 381.87 M20.72 402.59 C8.34 403.38, 3 399.61, 0 381.87 M0 381.87 C-0.54 303.66, 1.91 224.84, 0 20.72 M0 381.87 C-0.06 296.57, 0.14 214.21, 0 20.72 M0 20.72 C-0.9 4, 6.55 -0.89, 20.72 0 M0 20.72 C-2.39 3.16, 9.26 -0.21, 20.72 0" stroke="#1e1e1e" stroke-width="2" fill="none"></path></g><g transform="translate(42.27765141789132 206.47949627142725) rotate(0 10.546875 21.600000000000023)"><text x="10.546875" y="34.762499999999996" font-family="Cascadia, Segoe UI Emoji" font-size="36px" fill="#1e1e1e" text-anchor="middle" style="white-space: pre;" direction="ltr" dominant-baseline="alphabetic">x</text></g><g stroke-linecap="round" transform="translate(10 613.2062461353203) rotate(0 41.43997923981806 201.2974139489611)"><path d="M20.72 0 C34.64 -3.26, 57.9 1.93, 62.16 0 C74.27 -3.98, 88.43 10.62, 82.88 20.72 C87.3 99.82, 81.66 175.76, 82.88 381.87 C83.88 392.96, 71.58 398.7, 62.16 402.59 C51.07 399.85, 30.65 404.21, 20.72 402.59 C7.56 406.78, -3.27 398.13, 0 381.87 C0.15 302.65, -2.89 221.38, 0 20.72 C4.95 3.61, 5.32 -1.33, 20.72 0" stroke="none" stroke-width="0" fill="#a5d8ff"></path><path d="M20.72 0 C27.34 0.99, 42.27 2.03, 62.16 0 M20.72 0 C28.89 0.75, 39.14 -0.13, 62.16 0 M62.16 0 C73.46 1.3, 85.14 3.17, 82.88 20.72 M62.16 0 C72.37 2.41, 84.28 7.97, 82.88 20.72 M82.88 20.72 C83.19 113.7, 81.58 211.83, 82.88 381.87 M82.88 20.72 C83.08 102.69, 83.88 184.29, 82.88 381.87 M82.88 381.87 C80.03 394.54, 79.02 406.19, 62.16 402.59 M82.88 381.87 C85.1 399.14, 74.05 403.87, 62.16 402.59 M62.16 402.59 C54.04 402.49, 48.44 405.68, 20.72 402.59 M62.16 402.59 C47.65 404.16, 36.73 403, 20.72 402.59 M20.72 402.59 C3.61 398.62, 0.29 392.76, 0 381.87 M20.72 402.59 C6.96 405.68, -0.28 398.26, 0 381.87 M0 381.87 C-3.3 253.25, -3.97 125.41, 0 20.72 M0 381.87 C1.23 306.51, -0.94 233.53, 0 20.72 M0 20.72 C-2.26 6.11, 3.32 -3.75, 20.72 0 M0 20.72 C-0.74 10.43, 2.59 1.94, 20.72 0" stroke="#1e1e1e" stroke-width="2" fill="none"></path></g><g transform="translate(40.89310423981806 792.9036600842815) rotate(0 10.546875 21.59999999999991)"><text x="10.546875" y="34.762499999999996" font-family="Cascadia, Segoe UI Emoji" font-size="36px" fill="#1e1e1e" text-anchor="middle" style="white-space: pre;" direction="ltr" dominant-baseline="alphabetic">y</text></g><g stroke-linecap="round" transform="translate(231.96320620676852 837.430512503945) rotate(0 43.85701944907305 89.18528076464872)"><path d="M21.93 0 C36.38 4.55, 54.42 1.84, 65.79 0 C80.44 4.06, 89.7 11.75, 87.71 21.93 C86.28 59.81, 86.97 102.04, 87.71 156.44 C90.19 165.46, 75.32 173.5, 65.79 178.37 C50.73 180.06, 47.47 183.25, 21.93 178.37 C12.52 179.81, -3.46 168.36, 0 156.44 C6.71 113.35, -0.72 71.51, 0 21.93 C2.29 10.53, 6.82 -3.94, 21.93 0" stroke="none" stroke-width="0" fill="#b2f2bb"></path><path d="M21.93 0 C32.95 0.81, 46.44 -3.03, 65.79 0 M21.93 0 C34.02 -0.95, 45.92 0.85, 65.79 0 M65.79 0 C77.33 2.06, 90.93 7.23, 87.71 21.93 M65.79 0 C81.81 -2.57, 83.49 3.61, 87.71 21.93 M87.71 21.93 C82.99 49.7, 84.75 81.65, 87.71 156.44 M87.71 21.93 C87.19 71.67, 83.44 121.78, 87.71 156.44 M87.71 156.44 C90.63 169.79, 77.37 179.86, 65.79 178.37 M87.71 156.44 C87.18 173.98, 84.18 178.79, 65.79 178.37 M65.79 178.37 C49.7 174.32, 28.66 178.3, 21.93 178.37 M65.79 178.37 C51.21 181.07, 34.55 180.33, 21.93 178.37 M21.93 178.37 C5.88 175.13, 3.65 171.33, 0 156.44 M21.93 178.37 C10.75 177.95, 3.58 168.78, 0 156.44 M0 156.44 C2.14 107.2, 3.28 64.73, 0 21.93 M0 156.44 C-2.17 125.8, -1.19 98.38, 0 21.93 M0 21.93 C3.54 6.44, 8.72 0.82, 21.93 0 M0 21.93 C-3.39 7.68, 9.04 1, 21.93 0" stroke="#1e1e1e" stroke-width="2" fill="none"></path></g><g transform="translate(254.72647565583975 905.0157932685938) rotate(0 21.09375 21.59999999999991)"><text x="21.09375" y="34.762499999999996" font-family="Cascadia, Segoe UI Emoji" font-size="36px" fill="#1e1e1e" text-anchor="middle" style="white-space: pre;" direction="ltr" dominant-baseline="alphabetic">y2</text></g><g stroke-linecap="round" transform="translate(233.28684094084747 595.8688923884324) rotate(0 43.85701944907305 89.18528076464872)"><path d="M3.37 8.23 C3.37 8.23, 3.37 8.23, 3.37 8.23 M3.37 8.23 C3.37 8.23, 3.37 8.23, 3.37 8.23 M4.16 19.52 C4.66 13.84, 10.88 9.26, 14 8.2 M4.16 19.52 C7.16 15.76, 12.9 10.41, 14 8.2 M3.64 32.31 C13.8 24.13, 15.14 12.66, 27.26 5.14 M3.64 32.31 C11.03 23.24, 20.33 13.68, 27.26 5.14 M3.77 44.36 C13.19 32.43, 27.7 17.61, 37.89 5.11 M3.77 44.36 C12.71 33.62, 21.69 22.87, 37.89 5.11 M3.91 56.4 C14.05 43.12, 23.95 32.37, 48.52 5.08 M3.91 56.4 C22 35.01, 38.69 15.74, 48.52 5.08 M4.04 68.44 C16.75 55.23, 31.78 38.44, 59.15 5.04 M4.04 68.44 C16.73 53.46, 32.23 38.93, 59.15 5.04 M4.17 80.48 C28.37 52.9, 52.97 27.6, 72.4 1.99 M4.17 80.48 C23.62 56.2, 45.64 33.09, 72.4 1.99 M4.31 92.52 C31.38 66.66, 55.4 31.05, 81.06 4.22 M4.31 92.52 C20.02 75.93, 37.47 55.31, 81.06 4.22 M4.44 104.56 C31.32 68.25, 64.97 37.13, 85.79 10.98 M4.44 104.56 C35.86 69.43, 68.66 34.08, 85.79 10.98 M4.57 116.6 C31.77 82.87, 57.03 57.1, 91.17 16.98 M4.57 116.6 C38.25 79.33, 73.26 38.46, 91.17 16.98 M4.7 128.64 C25.08 106.81, 43.5 84.88, 91.3 29.02 M4.7 128.64 C24.83 105.93, 48.44 82.94, 91.3 29.02 M4.84 140.68 C27.89 107.45, 59.53 74.67, 91.44 41.06 M4.84 140.68 C25.51 115.49, 45.59 94.49, 91.44 41.06 M4.97 152.72 C25.91 130.63, 47.9 102.31, 91.57 53.1 M4.97 152.72 C28.83 124.33, 51.51 95.94, 91.57 53.1 M3.14 167.03 C23.48 140.62, 46.03 115.49, 91.7 65.14 M3.14 167.03 C28.65 138.35, 51.57 111.2, 91.7 65.14 M7.86 173.79 C25.2 152.21, 44.35 131.23, 91.84 77.18 M7.86 173.79 C33.15 145.93, 55.31 120.63, 91.84 77.18 M13.24 179.79 C37.55 161.29, 52.4 133.04, 91.97 89.22 M13.24 179.79 C29.42 163.71, 46.45 142.68, 91.97 89.22 M21.91 182.02 C36.44 161.08, 57.84 142.29, 92.1 101.26 M21.91 182.02 C45.61 154.85, 72.38 126.13, 92.1 101.26 M32.54 181.98 C45.91 163.59, 60.17 150.87, 92.24 113.31 M32.54 181.98 C52.86 156.17, 75.61 128.29, 92.24 113.31 M43.17 181.95 C55.54 169.77, 65.17 161.69, 92.37 125.35 M43.17 181.95 C51.79 172.04, 63.37 160.59, 92.37 125.35 M53.8 181.92 C65.04 161.47, 81.24 147.13, 92.5 137.39 M53.8 181.92 C66.85 167.58, 77.92 152.82, 92.5 137.39 M64.43 181.88 C73.38 172.54, 85.53 163.3, 92.64 149.43 M64.43 181.88 C72.85 170.76, 83.94 161.49, 92.64 149.43 M8.22 174.98 C8.22 174.98, 8.22 174.98, 8.22 174.98 M8.22 174.98 C8.22 174.98, 8.22 174.98, 8.22 174.98 M23.28 177.47 C15.45 174, 12.87 170.68, 2.14 159.1 M23.28 177.47 C15.09 170.01, 9.88 165.45, 2.14 159.1 M35.32 177.34 C27.52 171.11, 19.97 159.98, 2.11 148.47 M35.32 177.34 C26.16 169.39, 13.46 160.33, 2.11 148.47 M47.36 177.21 C37.07 165.42, 21.96 160.32, 1.32 137.19 M47.36 177.21 C31.19 161.5, 12.63 147.73, 1.32 137.19 M59.4 177.07 C37.94 156.88, 18.37 138.41, 1.29 126.56 M59.4 177.07 C37.7 157.08, 11.22 137.03, 1.29 126.56 M70.68 176.29 C50.59 153.15, 32.4 136.59, 1.25 115.93 M70.68 176.29 C53.7 161.1, 41.06 150.86, 1.25 115.93 M79.71 173.53 C66.03 160.64, 49.64 146.2, 1.22 105.3 M79.71 173.53 C57.67 154.92, 36.74 138.5, 1.22 105.3 M85.71 168.15 C64.6 144.82, 39.37 123.45, 1.18 94.67 M85.71 168.15 C58.37 144.06, 31.85 121.32, 1.18 94.67 M87.18 158.83 C60.05 132.45, 33.82 114.69, 1.15 84.04 M87.18 158.83 C59.7 134.67, 32.41 108.24, 1.15 84.04 M87.9 148.85 C67.44 131.48, 42.49 111.25, 1.11 73.41 M87.9 148.85 C59.07 121.06, 30.11 98.61, 1.11 73.41 M87.87 138.22 C61.54 115.65, 36.42 93.08, 1.08 62.78 M87.87 138.22 C58.4 113.58, 32.23 90.72, 1.08 62.78 M87.84 127.59 C70.95 116.9, 55.9 96.38, 1.04 52.15 M87.84 127.59 C55.1 98.03, 21.99 68.28, 1.04 52.15 M87.8 116.96 C67.02 92.62, 40.55 72.29, 1.01 41.52 M87.8 116.96 C65.42 95.96, 40.03 74.63, 1.01 41.52 M87.77 106.33 C66.01 93.84, 54.02 76.17, 0.98 30.89 M87.77 106.33 C70.18 88.1, 48.23 70.61, 0.98 30.89 M87.73 95.7 C52.31 63.11, 25 42.29, 0.94 20.26 M87.73 95.7 C58.56 69.93, 28.56 42.84, 0.94 20.26 M87.7 85.07 C67.04 69.26, 49.67 54.31, 2.42 10.94 M87.7 85.07 C59.67 61.6, 28.24 36, 2.42 10.94 M87.66 74.44 C51.71 44.49, 24.58 15.55, 6.91 4.25 M87.66 74.44 C61.3 50.03, 31.59 25.73, 6.91 4.25 M87.63 63.81 C72.85 47.85, 53.92 34.55, 15.93 1.49 M87.63 63.81 C65.16 42.96, 42.7 24.5, 15.93 1.49 M87.59 53.18 C69.31 38.04, 56.92 23.18, 25.71 -0.61 M87.59 53.18 C71.92 37.78, 57.05 24.11, 25.71 -0.61 M87.56 42.55 C69.4 27.86, 47.33 10.15, 37.75 -0.75 M87.56 42.55 C68.21 24.12, 45.21 8.7, 37.75 -0.75 M86.77 31.27 C74.32 17.82, 58.76 7.26, 50.54 -0.22 M86.77 31.27 C75.58 24.26, 66.73 11.92, 50.54 -0.22 M86.74 20.64 C80.39 16, 71.8 6.52, 62.59 -0.36 M86.74 20.64 C77.91 15.68, 74.1 8.14, 62.59 -0.36 M83.68 7.38 C82.72 5.54, 81.5 5.67, 78.4 2.79 M83.68 7.38 C82.98 5.94, 81.2 5.57, 78.4 2.79" stroke="#b2f2bb" stroke-width="1" fill="none"></path><path d="M21.93 0 C28.78 1.86, 42.97 -0.75, 65.79 0 M21.93 0 C32.81 0.01, 41.99 -0.76, 65.79 0 M65.79 0 C79.07 -2.34, 87.85 5.55, 87.71 21.93 M65.79 0 C83.9 2.74, 88.18 9.71, 87.71 21.93 M87.71 21.93 C83.12 51.57, 82.13 77.78, 87.71 156.44 M87.71 21.93 C88.07 68.92, 87.65 113.46, 87.71 156.44 M87.71 156.44 C88.16 169.95, 82.19 175.67, 65.79 178.37 M87.71 156.44 C91.88 170.63, 84.08 178.49, 65.79 178.37 M65.79 178.37 C50.25 177.98, 33.79 175.8, 21.93 178.37 M65.79 178.37 C49.6 180.48, 35.04 179.7, 21.93 178.37 M21.93 178.37 C4.94 176.22, 1.43 168.27, 0 156.44 M21.93 178.37 C11.57 176.94, 1.43 172.89, 0 156.44 M0 156.44 C2.72 109.92, -1.62 58.44, 0 21.93 M0 156.44 C-1.92 112.86, -0.57 72.46, 0 21.93 M0 21.93 C2.93 10.78, 4.57 -3.61, 21.93 0 M0 21.93 C-4.52 3.32, 10.83 -1.69, 21.93 0" stroke="#1e1e1e" stroke-width="2" fill="none"></path></g><g transform="translate(256.0501103899187 663.4541731530812) rotate(0 21.09375 21.59999999999991)"><text x="21.09375" y="34.762499999999996" font-family="Cascadia, Segoe UI Emoji" font-size="36px" fill="#1e1e1e" text-anchor="middle" style="white-space: pre;" direction="ltr" dominant-baseline="alphabetic">y1</text></g><g stroke-linecap="round" transform="translate(456.17870541128286 824.964196867149) rotate(0 39.85781040719121 27)"><path d="M5.26 1.92 C5.26 1.92, 5.26 1.92, 5.26 1.92 M5.26 1.92 C5.26 1.92, 5.26 1.92, 5.26 1.92 M0.14 20 C2.45 15.1, 6.45 13.92, 17.2 0.37 M0.14 20 C8.29 11.12, 11.53 4.57, 17.2 0.37 M0.27 32.04 C4.85 22.02, 14.05 13.77, 27.83 0.34 M0.27 32.04 C10.49 22.23, 20.54 8.29, 27.83 0.34 M0.41 44.08 C9.41 33.31, 21.36 22.17, 38.46 0.31 M0.41 44.08 C17.12 27.12, 31.99 10.23, 38.46 0.31 M4.48 51.59 C17.14 33.43, 31.89 17.52, 49.09 0.27 M4.48 51.59 C23.21 30.68, 37.59 10.23, 49.09 0.27 M13.14 53.82 C25.1 39.6, 39.35 20.22, 59.72 0.24 M13.14 53.82 C22.79 42.66, 33.84 30.79, 59.72 0.24 M23.11 54.54 C42.64 32.81, 57.31 14.48, 69.69 0.96 M23.11 54.54 C35.12 43.54, 45.38 29.57, 69.69 0.96 M33.74 54.51 C49.36 37.56, 64.14 22.06, 77.04 4.7 M33.74 54.51 C43.4 41.82, 53.81 29.91, 77.04 4.7 M44.37 54.47 C52.84 42.37, 70.17 24.88, 79.8 13.72 M44.37 54.47 C55.26 39.2, 70.08 28.95, 79.8 13.72 M55 54.44 C59.84 43.78, 65.27 43.63, 79.93 25.76 M55 54.44 C61.7 45.97, 67.03 38.53, 79.93 25.76 M65.63 54.4 C69.82 50.25, 73.86 45.51, 79.41 38.55 M65.63 54.4 C68.7 50.32, 74.99 41.92, 79.41 38.55 M3.56 50.78 C3.56 50.78, 3.56 50.78, 3.56 50.78 M3.56 50.78 C3.56 50.78, 3.56 50.78, 3.56 50.78 M18.62 53.27 C12.57 44.04, 8.81 41.42, 0.5 37.53 M18.62 53.27 C13.3 45.58, 2.68 40.67, 0.5 37.53 M30.66 53.14 C20.75 47.55, 14.04 38.67, 0.47 26.9 M30.66 53.14 C22.09 46.85, 17.15 42.19, 0.47 26.9 M42.7 53.01 C23.42 35.77, 10.1 25.47, 0.43 16.27 M42.7 53.01 C27.27 39.14, 13.46 28.21, 0.43 16.27 M55.49 53.53 C42.6 42.77, 27.73 30.41, 1.91 6.95 M55.49 53.53 C40 39.07, 20.37 23.4, 1.91 6.95 M67.53 53.4 C47.72 35.45, 25.41 17.44, 7.16 0.91 M67.53 53.4 C44.08 34.21, 22.8 14.92, 7.16 0.91 M76.56 50.64 C56.72 30.77, 35.87 14.98, 18.44 0.12 M76.56 50.64 C61.25 39.32, 48.28 24.18, 18.44 0.12 M80.29 43.29 C67.98 35.59, 59.13 22.39, 30.48 -0.01 M80.29 43.29 C68.08 32.01, 55.12 21.45, 30.48 -0.01 M80.26 32.66 C68.34 23.76, 56.6 8.57, 42.52 -0.14 M80.26 32.66 C71.69 24.02, 64.97 17.23, 42.52 -0.14 M80.23 22.03 C75.05 10.64, 60.64 3.73, 54.57 -0.28 M80.23 22.03 C71.43 15.03, 62.33 4.76, 54.57 -0.28 M79.44 10.74 C74.46 6.77, 67.88 1.18, 66.61 -0.41 M79.44 10.74 C77.03 6.06, 73.58 3.95, 66.61 -0.41" stroke="#ffc9c9" stroke-width="1" fill="none"></path><path d="M13.5 0 C32.41 -2.54, 46.41 -2.81, 66.22 0 M13.5 0 C33.37 1.59, 53.7 -0.41, 66.22 0 M66.22 0 C76.24 -2.16, 78.89 0.73, 79.72 13.5 M66.22 0 C72.09 0.29, 75.22 8.5, 79.72 13.5 M79.72 13.5 C81.75 21.39, 79.17 25.6, 79.72 40.5 M79.72 13.5 C79.55 20.47, 78.28 32.73, 79.72 40.5 M79.72 40.5 C81.67 51.71, 72.97 56.57, 66.22 54 M79.72 40.5 C78.31 53.71, 78.12 57.28, 66.22 54 M66.22 54 C52.59 55.96, 37.42 52.73, 13.5 54 M66.22 54 C45.82 52.46, 22.32 52.53, 13.5 54 M13.5 54 C6.28 54.03, -2 49.98, 0 40.5 M13.5 54 C2.33 58.03, -1.13 51.45, 0 40.5 M0 40.5 C-0.67 29.34, 0 25.98, 0 13.5 M0 40.5 C0.37 31.9, -0.21 23.33, 0 13.5 M0 13.5 C-2.01 4.19, 5.85 2.42, 13.5 0 M0 13.5 C1.83 1.61, 6.33 0.03, 13.5 0" stroke="#1e1e1e" stroke-width="2" fill="none"></path></g><g transform="translate(474.94276581847225 830.3641968671491) rotate(0 21.09375 21.59999999999991)"><text x="21.09375" y="34.762499999999996" font-family="Cascadia, Segoe UI Emoji" font-size="36px" fill="#1e1e1e" text-anchor="middle" style="white-space: pre;" direction="ltr" dominant-baseline="alphabetic">y3</text></g><g stroke-linecap="round" transform="translate(458.760492832047 939.2030847931151) rotate(0 39.85781040719121 38.298994620063695)"><path d="M19.15 0 C30.83 -3.59, 42.35 0.68, 60.57 0 C68.68 3.08, 78.26 8.4, 79.72 19.15 C79.19 28.73, 83.31 47.44, 79.72 57.45 C84.4 73.59, 71.26 81.69, 60.57 76.6 C48.5 77.26, 40.44 73.2, 19.15 76.6 C7.99 74.61, -1.63 66.27, 0 57.45 C-0.63 46.18, 3.2 35.62, 0 19.15 C2.08 2.21, 1.45 -4.4, 19.15 0" stroke="none" stroke-width="0" fill="#ffc9c9"></path><path d="M19.15 0 C29.09 1.69, 41.8 -1.72, 60.57 0 M19.15 0 C28.39 1.04, 38.26 1.45, 60.57 0 M60.57 0 C75.19 -3, 79.07 8.97, 79.72 19.15 M60.57 0 C69.52 1.29, 76.18 3.27, 79.72 19.15 M79.72 19.15 C81.01 26.97, 77.97 36.69, 79.72 57.45 M79.72 19.15 C79.05 29.7, 79.3 37.06, 79.72 57.45 M79.72 57.45 C82.58 66.62, 73.08 73.82, 60.57 76.6 M79.72 57.45 C79.21 67.42, 74.55 73.02, 60.57 76.6 M60.57 76.6 C51.51 73.6, 39.81 74.69, 19.15 76.6 M60.57 76.6 C51.58 77.27, 38.51 74.63, 19.15 76.6 M19.15 76.6 C2.84 74.93, -4 67.79, 0 57.45 M19.15 76.6 C9.8 74.7, -0.94 67.31, 0 57.45 M0 57.45 C-2.24 48.5, -1.91 35.84, 0 19.15 M0 57.45 C1.12 48.36, 0.4 35.06, 0 19.15 M0 19.15 C-3.75 9.44, 5.09 -2.1, 19.15 0 M0 19.15 C-0.47 7.04, 10.02 4.46, 19.15 0" stroke="#1e1e1e" stroke-width="2" fill="none"></path></g><g transform="translate(477.5245532392364 955.9020794131789) rotate(0 21.09375 21.59999999999991)"><text x="21.09375" y="34.762499999999996" font-family="Cascadia, Segoe UI Emoji" font-size="36px" fill="#1e1e1e" text-anchor="middle" style="white-space: pre;" direction="ltr" dominant-baseline="alphabetic">y4</text></g><g stroke-linecap="round" transform="translate(687.3985111638576 10) rotate(0 41.43997923981806 201.2974139489611)"><path d="M4.86 5.55 C4.86 5.55, 4.86 5.55, 4.86 5.55 M4.86 5.55 C4.86 5.55, 4.86 5.55, 4.86 5.55 M0.4 22.87 C6.21 18.62, 10.87 10.91, 19.43 0.99 M0.4 22.87 C2.54 17.73, 6.1 12.44, 19.43 0.99 M0.53 34.91 C8.91 27.03, 19.87 17.94, 30.06 0.95 M0.53 34.91 C11.2 25.98, 19.26 14.88, 30.06 0.95 M0.67 46.95 C11.75 36.31, 20.28 24.73, 40.69 0.92 M0.67 46.95 C12.21 33.54, 18.44 24.53, 40.69 0.92 M0.8 59 C15.65 40.43, 32.79 23.52, 51.32 0.88 M0.8 59 C21.51 36.04, 38.89 11.82, 51.32 0.88 M0.28 71.79 C12.56 54.89, 29.11 40.49, 61.29 1.6 M0.28 71.79 C21.11 50.34, 41.84 24.15, 61.29 1.6 M0.41 83.83 C32.75 53.42, 55.25 21.13, 71.92 1.57 M0.41 83.83 C27.96 52.65, 51.97 22.09, 71.92 1.57 M0.54 95.87 C23.94 64.5, 54.4 35.85, 78.61 6.06 M0.54 95.87 C25.25 62.59, 53.22 30.95, 78.61 6.06 M0.68 107.91 C33.38 76.58, 57.83 41.05, 82.03 14.33 M0.68 107.91 C16.77 88.8, 37.12 68.71, 82.03 14.33 M0.81 119.95 C20.6 103.23, 38.56 75.92, 82.82 25.62 M0.81 119.95 C24.04 96.99, 43.49 74.27, 82.82 25.62 M0.94 132 C14.69 112.17, 39.12 90.44, 82.95 37.66 M0.94 132 C31.9 96.25, 61.44 63.51, 82.95 37.66 M0.42 144.79 C23.31 124.65, 36.15 98.75, 83.08 49.7 M0.42 144.79 C16.23 122.93, 36.68 104.37, 83.08 49.7 M0.55 156.83 C28.01 123.85, 53.68 91.36, 83.22 61.74 M0.55 156.83 C17.16 138.39, 35.6 114.79, 83.22 61.74 M0.69 168.87 C21.25 149.14, 36.94 123.69, 83.35 73.78 M0.69 168.87 C26.8 137.84, 52.29 107.79, 83.35 73.78 M0.82 180.91 C23.09 153.57, 52.52 120.33, 82.83 86.57 M0.82 180.91 C15.77 163.44, 35.28 141.63, 82.83 86.57 M0.95 192.95 C16.81 169.72, 34.56 151.37, 82.96 98.62 M0.95 192.95 C24.33 170.2, 42.62 145.97, 82.96 98.62 M0.43 205.75 C33.17 166.53, 60.55 129.6, 83.09 110.66 M0.43 205.75 C27.62 175.91, 56.29 141.29, 83.09 110.66 M0.56 217.79 C32.49 181.42, 59.35 149.68, 83.23 122.7 M0.56 217.79 C35.31 181.78, 67.65 143.04, 83.23 122.7 M0.7 229.83 C28.88 198.17, 56.82 164.33, 83.36 134.74 M0.7 229.83 C21.29 208.67, 40.5 182.49, 83.36 134.74 M0.83 241.87 C19.13 217.2, 35.09 198.02, 82.84 147.53 M0.83 241.87 C31.9 209.54, 57.03 176.39, 82.84 147.53 M0.96 253.91 C24.95 223.01, 54.1 188.59, 82.97 159.57 M0.96 253.91 C32.18 221.77, 62.29 185.99, 82.97 159.57 M0.44 266.71 C18.64 247.69, 35.55 228.85, 83.1 171.62 M0.44 266.71 C30.86 230.26, 63.85 195.41, 83.1 171.62 M0.57 278.75 C25.19 252.89, 49.51 229.14, 83.24 183.66 M0.57 278.75 C26.71 246.59, 53.29 214.82, 83.24 183.66 M0.7 290.79 C26.4 258.37, 61.65 220, 83.37 195.7 M0.7 290.79 C19.26 269.19, 39.78 245.31, 83.37 195.7 M0.84 302.83 C26.86 276.1, 52.79 242.2, 83.5 207.74 M0.84 302.83 C31.83 264.71, 61.05 232.11, 83.5 207.74 M0.97 314.87 C25.75 284.81, 53.14 253.84, 82.98 220.53 M0.97 314.87 C24.77 286.91, 47.05 255.79, 82.98 220.53 M1.1 326.91 C18.57 303.1, 44.32 271.47, 83.11 232.57 M1.1 326.91 C28.69 294.07, 58.54 258.35, 83.11 232.57 M0.58 339.71 C35.27 299.81, 67.13 267.39, 83.24 244.62 M0.58 339.71 C32.84 303.73, 64.02 269.27, 83.24 244.62 M0.71 351.75 C25.56 328.96, 46.11 304.26, 83.38 256.66 M0.71 351.75 C26.07 318.82, 50.8 289.74, 83.38 256.66 M0.85 363.79 C32.18 328.36, 60.56 298.25, 83.51 268.7 M0.85 363.79 C33.99 328.04, 68.58 288.65, 83.51 268.7 M0.98 375.83 C32.45 340.09, 57.91 308.77, 82.99 281.49 M0.98 375.83 C29.04 344.79, 53.07 313.8, 82.99 281.49 M1.11 387.87 C16.59 362.82, 37.77 341.83, 83.12 293.53 M1.11 387.87 C20.41 361.15, 44.29 337.6, 83.12 293.53 M4.53 396.14 C31.02 364.67, 57.45 338.04, 83.25 305.57 M4.53 396.14 C23.48 373, 41.03 352.6, 83.25 305.57 M11.22 400.63 C32.54 370.52, 60.66 342.76, 83.39 317.62 M11.22 400.63 C28.85 383.02, 45.54 360.68, 83.39 317.62 M21.2 401.35 C41.61 374.45, 60.8 355.73, 83.52 329.66 M21.2 401.35 C42.54 377.54, 61.91 355.89, 83.52 329.66 M31.17 402.07 C49.27 380.16, 68.01 361.75, 83 342.45 M31.17 402.07 C44.83 384.79, 61.68 365.97, 83 342.45 M41.8 402.04 C53.06 393.76, 57.59 377.35, 83.13 354.49 M41.8 402.04 C50.96 389.74, 60.15 379.34, 83.13 354.49 M52.43 402 C58.8 391.29, 70.31 377.92, 83.26 366.53 M52.43 402 C59.9 395.74, 66.66 386.97, 83.26 366.53 M63.06 401.97 C65.44 398.61, 73.63 389.7, 83.4 378.57 M63.06 401.97 C66.46 397.51, 72.21 390.12, 83.4 378.57 M5.45 397.65 C5.45 397.65, 5.45 397.65, 5.45 397.65 M5.45 397.65 C5.45 397.65, 5.45 397.65, 5.45 397.65 M15.99 396.21 C14.51 394.67, 6 388.02, 2.4 384.4 M15.99 396.21 C9.85 392.5, 5.99 388.64, 2.4 384.4 M28.78 396.73 C18.3 386.12, 7.9 379.28, 2.37 373.77 M28.78 396.73 C24.48 392.68, 18.36 387.59, 2.37 373.77 M40.82 396.6 C25.86 385.82, 14.34 373.24, 2.33 363.14 M40.82 396.6 C32.52 390.14, 23.67 383.28, 2.33 363.14 M53.62 397.12 C37.01 384.33, 23.56 369.59, 2.3 352.51 M53.62 397.12 C33.38 377.65, 14.72 361.51, 2.3 352.51 M68.68 399.61 C46.66 378.26, 22.69 362.68, 2.26 341.88 M68.68 399.61 C51.04 382.37, 31.7 366.98, 2.26 341.88 M77.7 396.85 C52.99 373.44, 17.2 345.69, 2.23 331.25 M77.7 396.85 C47.79 371.42, 19.54 346.09, 2.23 331.25 M82.95 390.82 C61.82 377.8, 47.62 357.89, 2.19 320.62 M82.95 390.82 C65.53 376.53, 45.73 358.68, 2.19 320.62 M83.67 380.84 C65.23 359.35, 38.33 343.9, 2.16 309.99 M83.67 380.84 C55.1 354.76, 23.94 326.81, 2.16 309.99 M83.63 370.21 C56.57 346.07, 27.76 319.71, 2.12 299.36 M83.63 370.21 C52.81 340.94, 22.42 314.43, 2.12 299.36 M83.6 359.58 C54.82 328.75, 21.46 304.56, 2.09 288.73 M83.6 359.58 C68.71 342.79, 48.75 329.31, 2.09 288.73 M83.56 348.95 C61.76 332.25, 45.47 317.71, 2.06 278.1 M83.56 348.95 C59.15 323.21, 29.38 301.73, 2.06 278.1 M83.53 338.32 C64.05 320.41, 36.45 298.28, 2.02 267.47 M83.53 338.32 C58.41 317.77, 31.98 293.97, 2.02 267.47 M83.5 327.69 C59.25 307.67, 38.91 286.51, 1.99 256.84 M83.5 327.69 C54.42 298.64, 23.66 274.84, 1.99 256.84 M83.46 317.06 C68.53 300.61, 49.61 288.01, 1.95 246.21 M83.46 317.06 C65.37 302.49, 50.02 289.48, 1.95 246.21 M83.43 306.43 C51.72 276.2, 21.93 252.67, 1.92 235.58 M83.43 306.43 C64.74 291.54, 47.03 273.22, 1.92 235.58 M83.39 295.8 C62.73 282.87, 47.99 264.17, 1.88 224.95 M83.39 295.8 C60.01 275.61, 38.54 257.72, 1.88 224.95 M83.36 285.17 C65.31 268.65, 45.4 255.37, 1.85 214.32 M83.36 285.17 C58.59 262.21, 33.88 240.33, 1.85 214.32 M83.32 274.54 C56.52 252.62, 27.95 226.57, 2.57 204.34 M83.32 274.54 C56.55 247.68, 29.6 224.34, 2.57 204.34 M83.29 263.91 C50.71 236.89, 17.64 207.15, 2.53 193.71 M83.29 263.91 C60.64 247.55, 35.55 226.62, 2.53 193.71 M83.25 253.28 C53.44 228.87, 20.63 196.24, 2.5 183.08 M83.25 253.28 C61.63 235.52, 42.1 218.53, 2.5 183.08 M83.97 243.31 C54.67 220.74, 28.95 196.04, 2.47 172.45 M83.97 243.31 C58.05 218.6, 31.63 198.09, 2.47 172.45 M83.94 232.68 C63.35 216.3, 49.58 201.39, 2.43 161.82 M83.94 232.68 C52.52 204.07, 20.91 176.87, 2.43 161.82 M83.91 222.05 C60.87 204.39, 32.93 183.99, 2.4 151.19 M83.91 222.05 C66.78 207.31, 47.7 192.68, 2.4 151.19 M83.87 211.42 C58.19 189.27, 37.8 172.2, 2.36 140.56 M83.87 211.42 C59.76 191.68, 37 170.32, 2.36 140.56 M83.84 200.79 C59 180.61, 41.88 164.4, 2.33 129.93 M83.84 200.79 C57.61 179.31, 33.93 155.36, 2.33 129.93 M83.8 190.16 C51.72 158.55, 15.76 130.16, 2.29 119.3 M83.8 190.16 C53.29 163.13, 18.19 134.07, 2.29 119.3 M83.77 179.53 C56.65 153.07, 27.8 128.38, 2.26 108.67 M83.77 179.53 C59.31 159.79, 34.93 138.96, 2.26 108.67 M83.73 168.9 C62.46 152.71, 44.86 135.12, 2.22 98.04 M83.73 168.9 C61.26 151.53, 43.47 132.7, 2.22 98.04 M83.7 158.27 C60.94 137.79, 32.43 117.41, 2.19 87.41 M83.7 158.27 C61.91 139.01, 43.47 121.65, 2.19 87.41 M83.66 147.64 C64.53 121.84, 38.57 100.96, 2.15 76.78 M83.66 147.64 C54.63 120.64, 24.53 95.69, 2.15 76.78 M83.63 137.01 C56.77 109.44, 32.15 89.84, 2.12 66.15 M83.63 137.01 C59.39 118.21, 39.6 102.18, 2.12 66.15 M83.59 126.38 C64.48 116.72, 49.53 97.11, 2.09 55.52 M83.59 126.38 C58.62 104.57, 36.12 83.71, 2.09 55.52 M83.56 115.75 C63.89 96.82, 44.43 80.18, 2.05 44.89 M83.56 115.75 C56.6 92.09, 33.74 69.37, 2.05 44.89 M83.53 105.12 C62.43 88.61, 44.77 72.09, 2.02 34.26 M83.53 105.12 C51.25 78.2, 19.99 50.66, 2.02 34.26 M83.49 94.49 C63.65 79.33, 53.45 61.95, 1.98 23.63 M83.49 94.49 C64.46 79.01, 46.03 59.45, 1.98 23.63 M83.46 83.86 C64.8 63.6, 40.52 44.51, 4.97 15.63 M83.46 83.86 C62.97 65.28, 39.65 46.71, 4.97 15.63 M83.42 73.23 C59.53 51.96, 32.79 27.3, 6.44 6.31 M83.42 73.23 C57.46 46.46, 28.38 25.3, 6.44 6.31 M83.39 62.6 C53.57 36.99, 30.7 17.75, 12.44 0.93 M83.39 62.6 C60.74 42.54, 37.44 23.56, 12.44 0.93 M83.35 51.97 C66.18 35.07, 45.42 14.75, 22.22 -1.18 M83.35 51.97 C68.99 39.23, 58.27 25.73, 22.22 -1.18 M83.32 41.34 C72.29 30.65, 62.24 21.94, 34.26 -1.31 M83.32 41.34 C75.12 32.25, 65.59 23.22, 34.26 -1.31 M83.28 30.71 C69.86 18.25, 58.34 6.91, 47.06 -0.79 M83.28 30.71 C70.37 20.81, 59.44 9.53, 47.06 -0.79 M83.25 20.08 C73.37 9.16, 68.7 2.53, 59.85 -0.26 M83.25 20.08 C75.04 11.99, 67.05 4.26, 59.85 -0.26" stroke="#a5d8ff" stroke-width="1" fill="none"></path><path d="M20.72 0 C29.77 -2.13, 40.53 -3.09, 62.16 0 M20.72 0 C36.81 -0.08, 51.04 -0.69, 62.16 0 M62.16 0 C79.86 3.91, 81.72 9.47, 82.88 20.72 M62.16 0 C73.79 -4.45, 84.81 9.64, 82.88 20.72 M82.88 20.72 C84.48 140.99, 84.96 262.91, 82.88 381.87 M82.88 20.72 C83.06 95.96, 80.8 172.4, 82.88 381.87 M82.88 381.87 C81.11 395.77, 77.92 405.32, 62.16 402.59 M82.88 381.87 C84.97 396.38, 75.95 402.5, 62.16 402.59 M62.16 402.59 C50.99 402.63, 32.1 404.79, 20.72 402.59 M62.16 402.59 C54.38 403.83, 42.46 401.79, 20.72 402.59 M20.72 402.59 C5.52 405.27, -2.11 395.01, 0 381.87 M20.72 402.59 C8.87 403.96, -3.5 393.68, 0 381.87 M0 381.87 C-2.77 290.44, 1.73 196.78, 0 20.72 M0 381.87 C-3.18 252.18, -2.52 120.32, 0 20.72 M0 20.72 C-1.29 4.14, 9.58 1.62, 20.72 0 M0 20.72 C1.14 6.86, 6.82 -2.95, 20.72 0" stroke="#1e1e1e" stroke-width="2" fill="none"></path></g><g transform="translate(718.2916154036757 189.69741394896118) rotate(0 10.546875 21.600000000000023)"><text x="10.546875" y="34.762499999999996" font-family="Cascadia, Segoe UI Emoji" font-size="36px" fill="#1e1e1e" text-anchor="middle" style="white-space: pre;" direction="ltr" dominant-baseline="alphabetic">x</text></g><g stroke-linecap="round" transform="translate(677.688676243255 598.9184769056528) rotate(0 43.85701944907305 89.18528076464872)"><path d="M3.37 8.23 C3.37 8.23, 3.37 8.23, 3.37 8.23 M3.37 8.23 C3.37 8.23, 3.37 8.23, 3.37 8.23 M0.88 23.29 C6.77 16.5, 10.96 9.82, 20.56 0.65 M0.88 23.29 C6.51 14, 15.37 6.63, 20.56 0.65 M1.02 35.33 C15.38 24.25, 25.04 9.8, 31.19 0.62 M1.02 35.33 C9.27 26.39, 15.17 17.96, 31.19 0.62 M1.15 47.37 C13.12 33.96, 22.86 20.53, 41.82 0.58 M1.15 47.37 C14.81 30.26, 32.71 9.77, 41.82 0.58 M1.28 59.41 C14.8 44.77, 30.25 30.19, 52.45 0.55 M1.28 59.41 C18.47 36.02, 37.71 17.1, 52.45 0.55 M1.41 71.46 C24.66 48.9, 45.19 22.85, 63.08 0.51 M1.41 71.46 C15.08 53.94, 30.26 37.55, 63.08 0.51 M1.55 83.5 C15.11 63.97, 36.77 43.42, 73.06 1.23 M1.55 83.5 C23.03 55.86, 48.4 30.81, 73.06 1.23 M1.68 95.54 C23.77 73.91, 42.22 56.22, 80.41 4.97 M1.68 95.54 C24.76 68.96, 49.23 43.39, 80.41 4.97 M1.16 108.33 C27.01 73.96, 51.63 43.4, 85.79 10.98 M1.16 108.33 C22.64 86.86, 38.61 65.41, 85.79 10.98 M1.29 120.37 C25.37 89.05, 45.51 63.8, 87.24 21.51 M1.29 120.37 C18.29 100.42, 34.23 78.75, 87.24 21.51 M1.42 132.41 C28.15 105.59, 48.4 83.11, 87.37 33.55 M1.42 132.41 C22.2 109.54, 43.06 81.88, 87.37 33.55 M1.56 144.46 C27.17 106.38, 56.11 77.67, 87.5 45.59 M1.56 144.46 C26.31 120.68, 48.19 93.15, 87.5 45.59 M1.69 156.5 C32.23 117.71, 66.64 80.61, 86.98 58.38 M1.69 156.5 C21.13 131.93, 40.01 112.05, 86.98 58.38 M2.48 167.78 C23.4 139.01, 48.96 114.78, 87.11 70.42 M2.48 167.78 C22.23 144.17, 44.24 120.13, 87.11 70.42 M7.86 173.79 C38.36 138.6, 59.11 114.75, 87.24 82.47 M7.86 173.79 C30.27 148.9, 47.73 126.87, 87.24 82.47 M15.21 177.52 C34.76 154.85, 59.07 124.61, 87.38 94.51 M15.21 177.52 C31.26 156.31, 51.91 136.95, 87.38 94.51 M25.19 178.24 C41.81 153.89, 65.68 130.18, 87.51 106.55 M25.19 178.24 C41.17 158.06, 59 140.78, 87.51 106.55 M35.82 178.21 C44.77 165.55, 60.79 152.83, 87.64 118.59 M35.82 178.21 C51.77 159.73, 66.63 141.67, 87.64 118.59 M46.45 178.18 C63.77 157.93, 72.79 146.29, 87.78 130.63 M46.45 178.18 C54.92 165.51, 63.93 154.97, 87.78 130.63 M57.73 177.39 C65.49 164.93, 80.89 149.75, 87.91 142.67 M57.73 177.39 C64.45 166.22, 74.71 157.96, 87.91 142.67 M68.36 177.35 C73.57 167.51, 83.14 161.64, 88.04 154.71 M68.36 177.35 C74.11 170.81, 75.25 167.3, 88.04 154.71 M8.22 174.98 C8.22 174.98, 8.22 174.98, 8.22 174.98 M8.22 174.98 C8.22 174.98, 8.22 174.98, 8.22 174.98 M23.28 177.47 C17.81 172.94, 13.41 168.18, 2.14 159.1 M23.28 177.47 C15.35 172.68, 9.87 163.52, 2.14 159.1 M35.32 177.34 C26.76 169.18, 21.16 163.2, 2.11 148.47 M35.32 177.34 C26.41 170.96, 19.21 163.45, 2.11 148.47 M47.36 177.21 C34.65 168.92, 20.29 157.89, 1.32 137.19 M47.36 177.21 C36.17 165.9, 23.31 154.76, 1.32 137.19 M59.4 177.07 C44.64 163.6, 30.75 152.48, 1.29 126.56 M59.4 177.07 C38.94 159.74, 24.45 144.75, 1.29 126.56 M70.68 176.29 C51.61 165.75, 43.08 149.46, 1.25 115.93 M70.68 176.29 C50.44 161.38, 31.32 145.61, 1.25 115.93 M79.71 173.53 C52.27 153.73, 22.2 125.21, 1.22 105.3 M79.71 173.53 C59 152.6, 33.79 134.09, 1.22 105.3 M85.71 168.15 C52.1 142.43, 24.17 115.05, 1.18 94.67 M85.71 168.15 C59.51 144.93, 34.25 118.7, 1.18 94.67 M87.18 158.83 C60.81 136.57, 25.87 105.36, 1.15 84.04 M87.18 158.83 C62.69 140.82, 39.8 120.21, 1.15 84.04 M87.9 148.85 C61.32 122.8, 30.35 95.34, 1.11 73.41 M87.9 148.85 C54.16 116.84, 20.22 86.83, 1.11 73.41 M87.87 138.22 C71.62 120.54, 56.83 104.38, 1.08 62.78 M87.87 138.22 C71.34 121.99, 50.98 106.1, 1.08 62.78 M87.84 127.59 C57.54 101.5, 31.87 79.5, 1.04 52.15 M87.84 127.59 C59.53 102.73, 32.91 78.19, 1.04 52.15 M87.8 116.96 C61.38 94.93, 41.53 75.59, 1.01 41.52 M87.8 116.96 C53.44 91.04, 24.92 63.52, 1.01 41.52 M87.77 106.33 C62.37 82.31, 29.85 54.55, 0.98 30.89 M87.77 106.33 C59.02 82.53, 28.81 55.87, 0.98 30.89 M87.73 95.7 C68.93 75.91, 44.85 55.34, 0.94 20.26 M87.73 95.7 C69.02 78.01, 52.87 62.49, 0.94 20.26 M87.7 85.07 C53.35 53.98, 24.02 31.58, 2.42 10.94 M87.7 85.07 C62.75 63.86, 37.97 43.53, 2.42 10.94 M87.66 74.44 C69.48 56.33, 56.39 45.38, 6.91 4.25 M87.66 74.44 C59.4 49.74, 29.53 26.33, 6.91 4.25 M87.63 63.81 C69.7 47.56, 56.34 37.6, 15.93 1.49 M87.63 63.81 C69.91 50.6, 51.45 32.79, 15.93 1.49 M87.59 53.18 C66.53 36.7, 45.76 19.69, 25.71 -0.61 M87.59 53.18 C62.84 31.93, 37.96 11.37, 25.71 -0.61 M87.56 42.55 C65.62 24.66, 52.32 9.71, 37.75 -0.75 M87.56 42.55 C73.79 31.8, 60.55 17.46, 37.75 -0.75 M86.77 31.27 C71.8 18.1, 57.75 11.97, 50.54 -0.22 M86.77 31.27 C76.89 23.09, 65.97 11.37, 50.54 -0.22 M86.74 20.64 C82.72 18.1, 73.32 15.99, 62.59 -0.36 M86.74 20.64 C77.88 13.75, 69.93 7.36, 62.59 -0.36 M83.68 7.38 C82.61 6.03, 82.31 4.76, 78.4 2.79 M83.68 7.38 C82.56 6.06, 81.87 5.31, 78.4 2.79" stroke="#b2f2bb" stroke-width="1" fill="none"></path><path d="M21.93 0 C31.52 -3.08, 45.37 -0.28, 65.79 0 M21.93 0 C37.09 -0.31, 56.68 1.72, 65.79 0 M65.79 0 C79.24 2.56, 85.82 3.44, 87.71 21.93 M65.79 0 C82.33 2.73, 89.37 10.61, 87.71 21.93 M87.71 21.93 C84.04 64.08, 82.3 107.05, 87.71 156.44 M87.71 21.93 C88.63 51.97, 89.41 80.02, 87.71 156.44 M87.71 156.44 C89.66 173.78, 82.23 178.97, 65.79 178.37 M87.71 156.44 C87.7 170.97, 83.07 174.69, 65.79 178.37 M65.79 178.37 C49.94 180.05, 31.67 180.04, 21.93 178.37 M65.79 178.37 C52.47 178.47, 41.44 180.36, 21.93 178.37 M21.93 178.37 C5.2 177.7, 1.71 172.24, 0 156.44 M21.93 178.37 C3.81 176.36, -2.12 171.74, 0 156.44 M0 156.44 C6.04 103, 4.67 58.06, 0 21.93 M0 156.44 C0.93 106.14, -1.08 57.07, 0 21.93 M0 21.93 C2.67 8.93, 8.3 -0.04, 21.93 0 M0 21.93 C-0.09 4.36, 4.14 -2.99, 21.93 0" stroke="#1e1e1e" stroke-width="2" fill="none"></path></g><g transform="translate(700.4519456923263 666.5037576703016) rotate(0 21.09375 21.59999999999991)"><text x="21.09375" y="34.762499999999996" font-family="Cascadia, Segoe UI Emoji" font-size="36px" fill="#1e1e1e" text-anchor="middle" style="white-space: pre;" direction="ltr" dominant-baseline="alphabetic">y1</text></g><g stroke-linecap="round" transform="translate(681.3544165197745 820.5117458804502) rotate(0 39.85781040719121 38.298994620063695)"><path d="M7.56 2.6 C7.56 2.6, 7.56 2.6, 7.56 2.6 M7.56 2.6 C7.56 2.6, 7.56 2.6, 7.56 2.6 M1.13 22.19 C4.48 16.72, 17.72 3.1, 20.16 0.3 M1.13 22.19 C6.65 16.07, 14.21 9.95, 20.16 0.3 M0.61 34.98 C11.04 24.53, 19.89 14.16, 30.13 1.02 M0.61 34.98 C9.95 23.75, 21.63 11.04, 30.13 1.02 M0.74 47.02 C11.35 33.37, 30.28 21.36, 40.76 0.99 M0.74 47.02 C10.95 34.98, 19.11 24.55, 40.76 0.99 M0.88 59.06 C17.65 43.06, 30.43 30.05, 51.39 0.95 M0.88 59.06 C16.59 42.92, 35.05 22.07, 51.39 0.95 M2.98 68.84 C21.24 48.09, 33.9 28.48, 62.02 0.92 M2.98 68.84 C26.33 42.67, 45.01 21.11, 62.02 0.92 M9.02 74.09 C31.97 50.62, 50.01 31.01, 71.34 2.39 M9.02 74.09 C27.25 56.44, 42.03 35.41, 71.34 2.39 M17.68 76.32 C33.4 62.95, 45.35 40.5, 77.38 7.64 M17.68 76.32 C31.47 61.93, 43.43 50.86, 77.38 7.64 M28.31 76.28 C42.14 56.53, 59.49 34, 79.48 17.42 M28.31 76.28 C40.79 59.32, 56.57 43.25, 79.48 17.42 M38.28 77 C52.52 57.59, 67.35 43.63, 80.27 28.7 M38.28 77 C47.8 63.48, 60.14 48.33, 80.27 28.7 M48.91 76.97 C59.83 66.5, 63.84 57.5, 80.4 40.74 M48.91 76.97 C54.66 66.64, 64.19 61.89, 80.4 40.74 M59.54 76.94 C63.47 71.33, 72.05 58.88, 79.88 53.54 M59.54 76.94 C64.27 70.47, 69.69 66.15, 79.88 53.54 M72.8 73.88 C73.38 72.49, 75.33 68.77, 78.7 67.09 M72.8 73.88 C74.46 72.01, 77.03 69.44, 78.7 67.09 M7.38 73.82 C7.38 73.82, 7.38 73.82, 7.38 73.82 M7.38 73.82 C7.38 73.82, 7.38 73.82, 7.38 73.82 M17.91 72.37 C15.17 64.78, 4.04 64.44, 0.55 57.28 M17.91 72.37 C12.46 66.72, 3.82 60.38, 0.55 57.28 M29.95 72.24 C21.77 64.82, 21.1 62.16, 0.52 46.65 M29.95 72.24 C23.69 66.35, 15.4 58.15, 0.52 46.65 M42.75 72.76 C30.25 62.38, 19.26 58.19, 0.49 36.02 M42.75 72.76 C31.98 62.27, 22.9 53.09, 0.49 36.02 M54.79 72.63 C39.46 61.4, 29.65 52.08, 1.21 26.05 M54.79 72.63 C35.63 57.08, 17.1 39.18, 1.21 26.05 M65.32 71.18 C42.9 46.42, 18.14 30.61, 1.17 15.42 M65.32 71.18 C49.03 57.09, 32.82 40.47, 1.17 15.42 M75.85 69.74 C56.65 55.61, 47.17 41.37, 4.16 7.41 M75.85 69.74 C59.47 55.29, 40.73 40.36, 4.16 7.41 M81.1 63.7 C60.57 44.52, 44.54 31.55, 8.65 0.72 M81.1 63.7 C54.99 37.81, 28.04 15.23, 8.65 0.72 M84.84 56.35 C65.01 36.72, 41.21 20.19, 19.18 -0.72 M84.84 56.35 C63.61 38.07, 46.06 22.03, 19.18 -0.72 M84.81 45.72 C68.79 31.41, 47.38 12.11, 31.98 -0.2 M84.81 45.72 C69.39 30.42, 49.7 18.14, 31.98 -0.2 M84.77 35.09 C71.54 20.69, 56.37 11.99, 44.02 -0.34 M84.77 35.09 C73.28 25.2, 62.37 17.76, 44.02 -0.34 M84.74 24.46 C75.63 21.04, 69.41 8.56, 56.06 -0.47 M84.74 24.46 C79.04 19.79, 72 14.8, 56.06 -0.47 M77.16 7.27 C75.49 6.1, 71.52 3.58, 66.59 -1.91 M77.16 7.27 C76.31 5.46, 71.88 4.28, 66.59 -1.91" stroke="#ffc9c9" stroke-width="1" fill="none"></path><path d="M19.15 0 C32 -0.11, 41.36 1.38, 60.57 0 M19.15 0 C34.62 1.99, 45.62 1.31, 60.57 0 M60.57 0 C71.44 -3.87, 81.39 8.76, 79.72 19.15 M60.57 0 C74.99 3.3, 80.63 3.34, 79.72 19.15 M79.72 19.15 C75.72 28.06, 75.99 42.63, 79.72 57.45 M79.72 19.15 C78.19 29.82, 80.05 41.78, 79.72 57.45 M79.72 57.45 C81.54 70.82, 73.32 76.52, 60.57 76.6 M79.72 57.45 C82.38 66.53, 75.74 80.81, 60.57 76.6 M60.57 76.6 C45.34 78.72, 35.33 79.61, 19.15 76.6 M60.57 76.6 C44.37 77.71, 28.5 76.03, 19.15 76.6 M19.15 76.6 C8.09 77.78, -3.04 68.47, 0 57.45 M19.15 76.6 C4.26 77.28, 3.53 66.4, 0 57.45 M0 57.45 C1.71 48.57, 1.84 34.41, 0 19.15 M0 57.45 C-1.17 42.52, 0.81 31.18, 0 19.15 M0 19.15 C0.99 6.35, 6.31 -2.57, 19.15 0 M0 19.15 C-3.17 3.4, 3.92 4.35, 19.15 0" stroke="#1e1e1e" stroke-width="2" fill="none"></path></g><g transform="translate(700.1184769269676 837.210740500514) rotate(0 21.09375 21.59999999999991)"><text x="21.09375" y="34.762499999999996" font-family="Cascadia, Segoe UI Emoji" font-size="36px" fill="#1e1e1e" text-anchor="middle" style="white-space: pre;" direction="ltr" dominant-baseline="alphabetic">y3</text></g><g stroke-linecap="round" transform="translate(677.905498168082 939.2030847931151) rotate(0 39.85781040719121 38.298994620063695)"><path d="M19.15 0 C33.05 -3.28, 50.9 -1.76, 60.57 0 C77.42 -3.47, 77.69 7.43, 79.72 19.15 C74.58 22.56, 76.95 39.98, 79.72 57.45 C77.89 69.42, 77.21 71.68, 60.57 76.6 C40.39 72.62, 24.8 77.72, 19.15 76.6 C1.35 76.25, 4.89 65.17, 0 57.45 C-5.73 51.71, 3 38.1, 0 19.15 C-2.85 4.96, 7.3 -0.26, 19.15 0" stroke="none" stroke-width="0" fill="#ffc9c9"></path><path d="M19.15 0 C31.44 -3.83, 44.41 1.57, 60.57 0 M19.15 0 C32.54 0.05, 46.48 -1.02, 60.57 0 M60.57 0 C72.23 0.89, 80.17 5.58, 79.72 19.15 M60.57 0 C77.04 -1.51, 75.67 4.08, 79.72 19.15 M79.72 19.15 C81.85 27.39, 82.52 37.52, 79.72 57.45 M79.72 19.15 C79.54 30.18, 81.07 40.41, 79.72 57.45 M79.72 57.45 C76.14 72.4, 71.43 80.31, 60.57 76.6 M79.72 57.45 C75.66 67.89, 77.66 80.18, 60.57 76.6 M60.57 76.6 C48.14 74.27, 37.63 79.53, 19.15 76.6 M60.57 76.6 C48.13 75.69, 36.2 77.61, 19.15 76.6 M19.15 76.6 C7.04 75.89, -3.16 73.44, 0 57.45 M19.15 76.6 C4.52 80.2, 4.35 69.35, 0 57.45 M0 57.45 C3.66 50.73, -2.33 36.81, 0 19.15 M0 57.45 C-1.85 44.01, 0.46 28.62, 0 19.15 M0 19.15 C-2.09 8.55, 3.63 -3.58, 19.15 0 M0 19.15 C0.96 9.16, 7.39 1.31, 19.15 0" stroke="#1e1e1e" stroke-width="2" fill="none"></path></g><g transform="translate(696.669558575275 955.9020794131789) rotate(0 21.09375 21.59999999999991)"><text x="21.09375" y="34.762499999999996" font-family="Cascadia, Segoe UI Emoji" font-size="36px" fill="#1e1e1e" text-anchor="middle" style="white-space: pre;" direction="ltr" dominant-baseline="alphabetic">y4</text></g><g stroke-linecap="round"><g transform="translate(49.267491668368166 442.44363244447686) rotate(0 -0.22667395429925818 77.48689896592327)"><path d="M0 0 C-0.08 25.83, -0.38 129.14, -0.45 154.97 M0 0 C-0.08 25.83, -0.38 129.14, -0.45 154.97" stroke="#1e1e1e" stroke-width="1" fill="none"></path></g><g transform="translate(49.267491668368166 442.44363244447686) rotate(0 -0.22667395429925818 77.48689896592327)"><path d="M-0.45 154.97 L-6.75 141.36 L5.93 141.4 L-0.45 154.97" stroke="none" stroke-width="0" fill="#1e1e1e" fill-rule="evenodd"></path><path d="M-0.45 154.97 C-2.68 150.16, -4.9 145.35, -6.75 141.36 M-0.45 154.97 C-2.91 149.66, -5.37 144.35, -6.75 141.36 M-6.75 141.36 C-2.67 141.37, 1.42 141.38, 5.93 141.4 M-6.75 141.36 C-2.14 141.37, 2.47 141.39, 5.93 141.4 M5.93 141.4 C4.65 144.12, 3.36 146.85, -0.45 154.97 M5.93 141.4 C4.63 144.15, 3.34 146.9, -0.45 154.97 M-0.45 154.97 C-0.45 154.97, -0.45 154.97, -0.45 154.97 M-0.45 154.97 C-0.45 154.97, -0.45 154.97, -0.45 154.97" stroke="#1e1e1e" stroke-width="1" fill="none"></path></g></g><mask></mask><g stroke-linecap="round"><g transform="translate(276.68212365454383 782.9646131934801) rotate(0 -0.21680150014799437 21.18019893110204)"><path d="M0 0 C-0.07 7.06, -0.36 35.3, -0.43 42.36 M0 0 C-0.07 7.06, -0.36 35.3, -0.43 42.36" stroke="#1e1e1e" stroke-width="1" fill="none"></path></g><g transform="translate(276.68212365454383 782.9646131934801) rotate(0 -0.21680150014799437 21.18019893110204)"><path d="M-0.43 42.36 L-6.63 28.7 L6.04 28.83 L-0.43 42.36" stroke="none" stroke-width="0" fill="#1e1e1e" fill-rule="evenodd"></path><path d="M-0.43 42.36 C-2.37 38.1, -4.31 33.83, -6.63 28.7 M-0.43 42.36 C-2.44 37.94, -4.45 33.51, -6.63 28.7 M-6.63 28.7 C-3.53 28.73, -0.42 28.77, 6.04 28.83 M-6.63 28.7 C-2.38 28.75, 1.87 28.79, 6.04 28.83 M6.04 28.83 C4.55 31.95, 3.06 35.07, -0.43 42.36 M6.04 28.83 C4.12 32.85, 2.2 36.86, -0.43 42.36 M-0.43 42.36 C-0.43 42.36, -0.43 42.36, -0.43 42.36 M-0.43 42.36 C-0.43 42.36, -0.43 42.36, -0.43 42.36" stroke="#1e1e1e" stroke-width="1" fill="none"></path></g></g><mask></mask><g stroke-linecap="round"><g transform="translate(496.00196407929616 905.2229318316995) rotate(0 1.2435930947776797 14.238514202491842)"><path d="M0 0 C0.41 4.75, 2.07 23.73, 2.49 28.48 M0 0 C0.41 4.75, 2.07 23.73, 2.49 28.48" stroke="#1e1e1e" stroke-width="1" fill="none"></path></g><g transform="translate(496.00196407929616 905.2229318316995) rotate(0 1.2435930947776797 14.238514202491842)"><path d="M2.49 28.48 L-4.66 16.1 L7.38 15.05 L2.49 28.48" stroke="none" stroke-width="0" fill="#1e1e1e" fill-rule="evenodd"></path><path d="M2.49 28.48 C0.02 24.21, -2.44 19.94, -4.66 16.1 M2.49 28.48 C0 24.17, -2.48 19.86, -4.66 16.1 M-4.66 16.1 C-1.26 15.8, 2.14 15.5, 7.38 15.05 M-4.66 16.1 C0.07 15.69, 4.8 15.27, 7.38 15.05 M7.38 15.05 C5.64 19.81, 3.91 24.57, 2.49 28.48 M7.38 15.05 C6.29 18.04, 5.2 21.03, 2.49 28.48 M2.49 28.48 C2.49 28.48, 2.49 28.48, 2.49 28.48 M2.49 28.48 C2.49 28.48, 2.49 28.48, 2.49 28.48" stroke="#1e1e1e" stroke-width="1" fill="none"></path></g></g><mask></mask><g stroke-linecap="round"><g transform="translate(107.25304404069539 205.44772295560097) rotate(0 283.32191812675046 0)"><path d="M0 0 C123.01 0, 246.03 0, 566.64 0" stroke="#1e1e1e" stroke-width="1.5" fill="none" stroke-dasharray="1.5 7"></path></g><g transform="translate(107.25304404069539 205.44772295560097) rotate(0 283.32191812675046 0)"><path d="M566.64 0 L553.05 6.34 L553.05 -6.34 L566.64 0" stroke="none" stroke-width="0" fill="#1e1e1e" fill-rule="evenodd"></path><path d="M566.64 0 C563.69 1.38, 560.74 2.75, 553.05 6.34 M553.05 6.34 C553.05 3.18, 553.05 0.02, 553.05 -6.34 M553.05 -6.34 C555.9 -5.01, 558.74 -3.68, 566.64 0 M566.64 0 C566.64 0, 566.64 0, 566.64 0" stroke="#1e1e1e" stroke-width="1.5" fill="none"></path></g></g><mask></mask><g stroke-linecap="round"><g transform="translate(334.05022683505376 685.0441232635562) rotate(0 165.9397696547294 0)"><path d="M0 0 C84.02 0, 168.05 0, 331.88 0" stroke="#1e1e1e" stroke-width="1.5" fill="none" stroke-dasharray="1.5 7"></path></g><g transform="translate(334.05022683505376 685.0441232635562) rotate(0 165.9397696547294 0)"><path d="M331.88 0 L318.28 6.34 L318.28 -6.34 L331.88 0" stroke="none" stroke-width="0" fill="#1e1e1e" fill-rule="evenodd"></path><path d="M331.88 0 C328.44 1.6, 325 3.21, 318.28 6.34 M318.28 6.34 C318.28 2.96, 318.28 -0.43, 318.28 -6.34 M318.28 -6.34 C322.35 -4.44, 326.43 -2.54, 331.88 0 M331.88 0 C331.88 0, 331.88 0, 331.88 0" stroke="#1e1e1e" stroke-width="1.5" fill="none"></path></g></g><mask></mask><g stroke-linecap="round"><g transform="translate(545.5577119129412 859.9565941348014) rotate(0 62.14945824330971 0)"><path d="M0 0 C33.18 0, 66.37 0, 124.3 0" stroke="#1e1e1e" stroke-width="1.5" fill="none" stroke-dasharray="1.5 7"></path></g><g transform="translate(545.5577119129412 859.9565941348014) rotate(0 62.14945824330971 0)"><path d="M124.3 0 L110.7 6.34 L110.7 -6.34 L124.3 0" stroke="none" stroke-width="0" fill="#1e1e1e" fill-rule="evenodd"></path><path d="M124.3 0 C120.67 1.69, 117.04 3.38, 110.7 6.34 M110.7 6.34 C110.7 1.62, 110.7 -3.09, 110.7 -6.34 M110.7 -6.34 C116.04 -3.85, 121.38 -1.36, 124.3 0 M124.3 0 C124.3 0, 124.3 0, 124.3 0" stroke="#1e1e1e" stroke-width="1.5" fill="none"></path></g></g><mask></mask><g stroke-linecap="round"><g transform="translate(549.2876342676645 974.9754638028726) rotate(0 57.88541100739167 0)"><path d="M0 0 C31.82 0, 63.63 0, 115.77 0" stroke="#1e1e1e" stroke-width="1.5" fill="none" stroke-dasharray="1.5 7"></path></g><g transform="translate(549.2876342676645 974.9754638028726) rotate(0 57.88541100739167 0)"><path d="M115.77 0 L102.18 6.34 L102.18 -6.34 L115.77 0" stroke="none" stroke-width="0" fill="#1e1e1e" fill-rule="evenodd"></path><path d="M115.77 0 C112.03 1.74, 108.3 3.48, 102.18 6.34 M102.18 6.34 C102.18 2.94, 102.18 -0.46, 102.18 -6.34 M102.18 -6.34 C105.31 -4.88, 108.44 -3.42, 115.77 0 M115.77 0 C115.77 0, 115.77 0, 115.77 0" stroke="#1e1e1e" stroke-width="1.5" fill="none"></path></g></g><mask></mask><g stroke-linecap="round"><g transform="translate(106.16689065100218 810.4312445971646) rotate(0 46.87468021625318 0)"><path d="M0 0 C26.42 0, 52.83 0, 93.75 0" stroke="#1e1e1e" stroke-width="1.5" fill="none" stroke-dasharray="8 9"></path></g><g transform="translate(106.16689065100218 810.4312445971646) rotate(0 46.87468021625318 0)"><path d="M93.75 0 L80.15 6.34 L80.15 -6.34 L93.75 0" stroke="none" stroke-width="0" fill="#1e1e1e" fill-rule="evenodd"></path><path d="M93.75 0 C89.92 1.79, 86.09 3.57, 80.15 6.34 M80.15 6.34 C80.15 3.32, 80.15 0.3, 80.15 -6.34 M80.15 -6.34 C83.06 -4.99, 85.96 -3.63, 93.75 0 M93.75 0 C93.75 0, 93.75 0, 93.75 0" stroke="#1e1e1e" stroke-width="1.5" fill="none"></path></g></g><mask></mask><g stroke-linecap="round"><g transform="translate(340.18818706198726 921.6306737740015) rotate(0 46.87468021625318 0)"><path d="M0 0 C23.07 0, 46.15 0, 93.75 0" stroke="#1e1e1e" stroke-width="1.5" fill="none" stroke-dasharray="8 9"></path></g><g transform="translate(340.18818706198726 921.6306737740015) rotate(0 46.87468021625318 0)"><path d="M93.75 0 L80.15 6.34 L80.15 -6.34 L93.75 0" stroke="none" stroke-width="0" fill="#1e1e1e" fill-rule="evenodd"></path><path d="M93.75 0 C90.4 1.56, 87.06 3.12, 80.15 6.34 M80.15 6.34 C80.15 1.39, 80.15 -3.55, 80.15 -6.34 M80.15 -6.34 C84.27 -4.42, 88.39 -2.5, 93.75 0 M93.75 0 C93.75 0, 93.75 0, 93.75 0" stroke="#1e1e1e" stroke-width="1.5" fill="none"></path></g></g><mask></mask></svg>